# xmcd
#
# Track frame offsets: 
#        150
#        17592
#        40967
#        66567
#        87652
#        111067
#        125502
#        138577
#        154872
#        173150
#        185782
#        202397
#
# Disc length: 2970 seconds
#
# Revision: 2
# Processed by: cddbd v1.5.2PL0 Copyright (c) Steve Scherf et al.
# Submitted via: ExactAudioCopy v0.99pb4
#
DISCID=b90b980c
DTITLE=Glenn Kaiser Band - Carolina Moon
DYEAR=2001
DGENRE=Blues/Rock
TTITLE0=Torch
TTITLE1=Out Cold
TTITLE2=Mercy
TTITLE3=Carolina Moon
TTITLE4=Gonna Meet You At The Station
TTITLE5=Changin' Wind
TTITLE6=Country Mile
TTITLE7=Storm
TTITLE8=Fuss and Moan
TTITLE9=Grinder
TTITLE10=I Forgive You
TTITLE11=Rooster Crow
EXTD=
EXTT0=
EXTT1=
EXTT2=
EXTT3=
EXTT4=
EXTT5=
EXTT6=
EXTT7=
EXTT8=
EXTT9=
EXTT10=
EXTT11=
PLAYORDER=
